<?xml version="1.0" standalone="no"?><!DOCTYPE svg PUBLIC "-//W3C//DTD SVG 1.1//EN" "http://www.w3.org/Graphics/SVG/1.1/DTD/svg11.dtd"><svg t="1520246500378" class="icon" style="" viewBox="0 0 1024 1024" version="1.1" xmlns="http://www.w3.org/2000/svg" p-id="4509" xmlns:xlink="http://www.w3.org/1999/xlink" width="200" height="200"><defs><style type="text/css"></style></defs><path d="M793.6 352c-12.8-12.8-32-12.8-44.8 0L460.8 633.6 352 524.8c-12.8-12.8-32-12.8-44.8 0-12.8 12.8-12.8 32 0 44.8L441.6 704c12.8 12.8 32 12.8 44.8 0l12.8-19.2 288-288c19.2-12.8 19.2-32 6.4-44.8z" p-id="4510" fill="#009EE2"></path><path d="M524.8 70.4c-249.6 0-448 198.4-448 448s198.4 448 448 448 448-198.4 448-448-198.4-448-448-448z m0 832c-211.2 0-384-172.8-384-384s172.8-384 384-384 384 172.8 384 384-166.4 384-384 384z" p-id="4511" fill="#009EE2"></path></svg>