<?xml version="1.0" standalone="no"?><!DOCTYPE svg PUBLIC "-//W3C//DTD SVG 1.1//EN" "http://www.w3.org/Graphics/SVG/1.1/DTD/svg11.dtd"><svg t="1520246616427" class="icon" style="" viewBox="0 0 1024 1024" version="1.1" xmlns="http://www.w3.org/2000/svg" p-id="4683" xmlns:xlink="http://www.w3.org/1999/xlink" width="200" height="200"><defs><style type="text/css"></style></defs><path d="M531.2 102.4c-249.6 0-448 198.4-448 448s198.4 448 448 448 448-198.4 448-448c0-243.2-198.4-448-448-448z m0 832c-211.2 0-384-172.8-384-384s172.8-384 384-384 384 172.8 384 384-172.8 384-384 384z" p-id="4684" fill="#FA5555"></path><path d="M710.4 371.2c-12.8-12.8-32-12.8-44.8 0L531.2 505.6 396.8 371.2c-12.8-12.8-32-12.8-44.8 0s-12.8 32 0 44.8l134.4 134.4-134.4 134.4c-12.8 12.8-12.8 32 0 44.8s32 12.8 44.8 0l134.4-134.4 134.4 134.4c12.8 12.8 32 12.8 44.8 0s12.8-32 0-44.8L576 550.4l134.4-134.4c12.8-12.8 12.8-32 0-44.8z" p-id="4685" fill="#FA5555"></path></svg>