<?xml version="1.0" standalone="no"?><!DOCTYPE svg PUBLIC "-//W3C//DTD SVG 1.1//EN" "http://www.w3.org/Graphics/SVG/1.1/DTD/svg11.dtd"><svg t="1533375368839" class="icon" style="" viewBox="0 0 1024 1024" version="1.1" xmlns="http://www.w3.org/2000/svg" p-id="1051" xmlns:xlink="http://www.w3.org/1999/xlink" width="200" height="200"><defs><style type="text/css"></style></defs><path d="M580.9 702.3c-69.5 0-134.7-26.9-183.5-75.7-29.3-29.3-51.3-65.6-63.7-105-5.3-16.9 4.1-34.8 20.9-40.1 16.9-5.3 34.8 4.1 40.1 20.9 9.5 30.1 25.6 56.6 47.9 78.9 76.2 76.2 200.2 76.2 276.5 0L903 397.5c76.2-76.2 76.2-200.2 0-276.5-36.7-36.7-85.8-57-138.2-57-52.4 0-101.5 20.2-138.2 57l-130 130c-12.5 12.5-32.8 12.5-45.3 0-12.5-12.5-12.5-32.8 0-45.3l130-130C630.1 26.9 695.3 0 764.8 0c69.5 0 134.7 26.9 183.5 75.7 48.8 48.8 75.7 114 75.7 183.5s-26.9 134.7-75.7 183.5L764.4 626.5C715.6 675.4 650.4 702.3 580.9 702.3z" p-id="1052" fill="#1296db"></path><path d="M259.2 1024c-69.5 0-134.7-26.9-183.5-75.7C26.9 899.4 0 834.3 0 764.8c0-69.5 26.9-134.7 75.7-183.5l183.8-183.8c48.8-48.8 114-75.7 183.5-75.7 69.5 0 134.7 26.9 183.5 75.7 29.3 29.3 51.3 65.6 63.7 105 5.3 16.9-4.1 34.8-20.9 40.1-16.9 5.3-34.8-4.1-40.1-20.9-9.5-30.1-25.6-56.6-47.9-78.9-36.7-36.7-85.8-57-138.2-57-52.4 0-101.5 20.2-138.2 57L121 626.5c-36.7 36.7-57 85.8-57 138.2 0 52.4 20.2 101.5 57 138.2 76.2 76.2 200.2 76.2 276.5 0l130-130c12.5-12.5 32.8-12.5 45.3 0 12.5 12.5 12.5 32.8 0 45.3l-130 130C393.9 997.1 328.7 1024 259.2 1024z" p-id="1053" fill="#1296db"></path></svg>