<?xml version="1.0" standalone="no"?><!DOCTYPE svg PUBLIC "-//W3C//DTD SVG 1.1//EN" "http://www.w3.org/Graphics/SVG/1.1/DTD/svg11.dtd"><svg t="1510672806464" class="icon" style="" viewBox="0 0 1026 1024" version="1.1" xmlns="http://www.w3.org/2000/svg" p-id="11093" xmlns:xlink="http://www.w3.org/1999/xlink" width="200.390625" height="200"><defs><style type="text/css"></style></defs><path d="M865.048957 27.954023H161.239676C84.842912 27.954023 22.722861 89.093231 22.722861 164.454662v711.438058c0 75.306939 62.120051 136.609621 138.516815 136.609621h503.82631c24.684547 0 44.682844-19.780332 44.682843-44.246913a44.573861 44.573861 0 0 0-44.682843-44.301405H161.239676a48.606215 48.606215 0 0 1-49.096636-48.115794V164.454662c0-26.482759 22.068966-48.115794 49.096636-48.115794h703.809281c27.082163 0 49.096637 21.578544 49.096637 48.115794v509.820349c0 24.41209 19.943806 44.301405 44.737335 44.301404a44.51937 44.51937 0 0 0 44.628352-44.301404V164.454662c0.054491-75.36143-62.011069-136.500639-138.462324-136.500639z" p-id="11094"></path><path d="M788.815666 735.141762a281.719881 281.719881 0 0 0 57.815241-171.865474 284.607918 284.607918 0 0 0-85.660281-203.797361 293.381013 293.381013 0 0 0-206.848872-84.35249c-78.140485 0-151.431247 29.9702-206.739889 84.35249-55.308642 54.545764-85.660281 126.855683-85.660281 203.797361s30.40613 149.360579 85.660281 203.79736a293.326522 293.326522 0 0 0 206.739889 84.352491 293.489996 293.489996 0 0 0 170.993614-54.164325l184.07152 181.455938a45.39123 45.39123 0 0 0 31.604938 12.641976 45.009791 45.009791 0 0 0 31.604939-12.750958 44.246914 44.246914 0 0 0 0-62.828438l-183.581099-180.63857zM554.067263 762.87782c-111.870583 0-202.979991-89.583653-202.979992-199.601532 0-110.126862 91.109408-199.765006 202.979992-199.765007 111.979566 0 202.979991 89.638144 202.979991 199.765007 0 110.01788-91.000426 199.601533-202.979991 199.601532z" p-id="11095"></path></svg>