<?xml version="1.0" standalone="no"?><!DOCTYPE svg PUBLIC "-//W3C//DTD SVG 1.1//EN" "http://www.w3.org/Graphics/SVG/1.1/DTD/svg11.dtd"><svg t="1521092704088" class="icon" style="" viewBox="0 0 1024 1024" version="1.1" xmlns="http://www.w3.org/2000/svg" p-id="1077" xmlns:xlink="http://www.w3.org/1999/xlink" width="200" height="200"><defs><style type="text/css"></style></defs><path d="M832 448H444.8c-19.2 0-32-12.8-32-32s12.8-32 32-32H832c19.2 0 32 12.8 32 32s-12.8 32-32 32z" p-id="1078" fill="#8a8a8a"></path><path d="M640 643.2c-19.2 0-32-12.8-32-32V220.8c0-19.2 12.8-32 32-32s32 12.8 32 32v393.6c0 16-12.8 28.8-32 28.8zM704 1024H64c-35.2 0-64-28.8-64-64V320c0-35.2 28.8-64 64-64h96c19.2 0 32 12.8 32 32s-12.8 32-32 32H64v640h640v-96c0-19.2 12.8-32 32-32s32 12.8 32 32v96c0 35.2-28.8 64-64 64z" p-id="1079" fill="#8a8a8a"></path><path d="M960 768H320c-35.2 0-64-28.8-64-64V64c0-35.2 28.8-64 64-64h640c35.2 0 64 28.8 64 64v640c0 35.2-28.8 64-64 64zM320 64v640h640V64H320z" p-id="1080" fill="#8a8a8a"></path></svg>