<?xml version="1.0" standalone="no"?><!DOCTYPE svg PUBLIC "-//W3C//DTD SVG 1.1//EN" "http://www.w3.org/Graphics/SVG/1.1/DTD/svg11.dtd"><svg t="1521788981453" class="icon" style="" viewBox="0 0 1024 1024" version="1.1" xmlns="http://www.w3.org/2000/svg" p-id="499" xmlns:xlink="http://www.w3.org/1999/xlink" width="200" height="200"><defs><style type="text/css"></style></defs><path d="M746.810027 612.983467c-83.336533 0-150.893227 67.560107-150.893227 150.89664S663.473493 914.773333 746.810027 914.773333C830.149973 914.773333 897.706667 847.21664 897.706667 763.880107s-67.556693-150.89664-150.89664-150.89664z m99.9936 170.891946h-79.99488v79.998294h-39.99744v-79.998294h-79.998294v-39.99744h79.998294v-79.99488h39.99744v79.99488h79.99488v39.99744zM500.411733 418.59072l-19.124906-58.852693-19.172694 58.852693a22.442667 22.442667 0 0 1-21.44256 15.62624h-61.91104l50.131627 36.375893a22.59968 22.59968 0 0 1 8.133973 25.285974l-19.12832 58.852693 50.131627-36.420267a22.452907 22.452907 0 0 1 13.257387-4.293973c4.631893 0 9.263787 1.426773 13.2096 4.293973l50.080426 36.37248-19.124906-58.856106a22.828373 22.828373 0 0 1 8.229546-25.285974l50.131627-36.328106h-61.85984a22.62016 22.62016 0 0 1-21.541547-15.622827z" fill="#707070" p-id="500"></path><path d="M768.146773 128.570027H194.382507c-37.614933 0-68.10624 30.562987-68.10624 68.266666v662.224214c0 7.58784 3.836587 14.592 10.185386 18.834773a22.145707 22.145707 0 0 0 12.34944 3.693227 23.278933 23.278933 0 0 0 8.96-1.774934l320.566614-138.752 89.163093 37.669547a182.46656 182.46656 0 0 1-0.597333-13.99808c0-98.891093 80.165547-179.05664 179.05664-179.05664 32.938667 0 63.781547 8.936107 90.292906 24.456533V196.836693c0-37.70368-30.491307-68.266667-68.10624-68.266666z m-101.57056 301.359786l-93.064533 67.580587 35.587413 109.325653a22.534827 22.534827 0 0 1-8.178346 25.193814 22.074027 22.074027 0 0 1-13.305174 4.334933 22.408533 22.408533 0 0 1-13.359786-4.334933l-92.962134-67.5328-93.013333 67.580586a22.56896 22.56896 0 0 1-26.569387 0 22.551893 22.551893 0 0 1-8.18176-25.186986l35.488427-109.376854-93.013333-67.580586c-7.888213-5.76512-11.236693-15.967573-8.23296-25.238187a22.551893 22.551893 0 0 1 21.490346-15.62624h114.9952l35.539627-109.428053a22.678187 22.678187 0 0 1 21.490347-15.57504 22.459733 22.459733 0 0 1 21.44256 15.62624l35.536213 109.376853h114.9952c9.806507 0 18.432 6.260053 21.54496 15.62624 2.911573 9.263787-0.341333 19.46624-8.229547 25.234773z" fill="#707070" p-id="501"></path></svg>