<?xml version="1.0" standalone="no"?><!DOCTYPE svg PUBLIC "-//W3C//DTD SVG 1.1//EN" "http://www.w3.org/Graphics/SVG/1.1/DTD/svg11.dtd"><svg t="1510235741341" class="icon" style="" viewBox="0 0 1024 1024" version="1.1" xmlns="http://www.w3.org/2000/svg" p-id="3790" xmlns:xlink="http://www.w3.org/1999/xlink" width="200" height="200"><defs><style type="text/css"></style></defs><path d="M866.461538 0 157.538462 0C92.396308 0 39.384615 53.011692 39.384615 118.153846l0 787.692308c0 65.142154 53.011692 118.153846 118.153846 118.153846l708.923077 0c65.142154 0 118.153846-53.011692 118.153846-118.153846L984.615385 118.153846C984.615385 53.011692 931.603692 0 866.461538 0zM710.144 513.063385c0 21.740308-17.606154 39.384615-39.384615 39.384615L236.032 552.448c-21.740308 0-39.384615-17.644308-39.384615-39.384615s17.644308-39.384615 39.384615-39.384615l434.727385 0C692.539077 473.678769 710.144 491.323077 710.144 513.063385zM510.897231 198.577231c32.627692 0 59.076923 26.450462 59.076923 59.076923 0 32.627692-26.449231 59.076923-59.076923 59.076923-32.626462 0-59.076923-26.449231-59.076923-59.076923C451.820308 225.026462 478.270769 198.577231 510.897231 198.577231zM255.645538 198.577231c32.627692 0 59.076923 26.450462 59.076923 59.076923 0 32.627692-26.449231 59.076923-59.076923 59.076923s-59.076923-26.449231-59.076923-59.076923C196.568615 225.026462 223.017846 198.577231 255.645538 198.577231zM786.313846 787.101538 235.874462 787.101538c-21.740308 0-39.384615-17.604923-39.384615-39.384615 0-21.778462 17.644308-39.384615 39.384615-39.384615L786.313846 708.332308c21.779692 0 39.384615 17.606154 39.384615 39.384615C825.698462 769.496615 808.093538 787.101538 786.313846 787.101538zM767.054769 316.731077c-32.627692 0-59.076923-26.449231-59.076923-59.076923 0-32.626462 26.449231-59.076923 59.076923-59.076923 32.626462 0 59.076923 26.450462 59.076923 59.076923C826.131692 290.281846 799.681231 316.731077 767.054769 316.731077z" p-id="3791"></path></svg>