<?xml version="1.0" standalone="no"?><!DOCTYPE svg PUBLIC "-//W3C//DTD SVG 1.1//EN" "http://www.w3.org/Graphics/SVG/1.1/DTD/svg11.dtd"><svg t="1509957791738" class="icon" style="" viewBox="0 0 1024 1024" version="1.1" xmlns="http://www.w3.org/2000/svg" p-id="3203" xmlns:xlink="http://www.w3.org/1999/xlink" width="200" height="200"><defs><style type="text/css"></style></defs><path d="M239.01414 1590.423517z" p-id="3204"></path><path d="M750.561839 229.285057H496.155638a23.128767 23.128767 0 1 1 0-46.244231h254.406201c12.56927 0.281409 22.610974 10.55131 22.610974 23.122627 0.001023 12.571317-10.041704 22.841218-22.610974 23.121604zM955.407274 706.525392l0.173962-71.903634s-47.459918-9.389858-48.242747-12.576433c-0.886183-3.550873-1.850138-6.989181-2.888794-10.339486 5.548366-10.30674 32.278147-32.94739 32.278148-32.947389l-53.510728-71.293743s-34.695197 28.562523-43.323715 32.659841c-4.00829-1.545192-8.248871-2.952238-12.711509-4.241605-4.665253-1.155313-17.542538-46.88175-17.542538-46.88175l-72.04178-0.582261s-7.794523 44.280506-19.463284 47.285956c-3.885494 1.140986-7.795547 2.623757-11.697413 4.399193-8.641821-4.207835-43.308365-33.210379-43.308365-33.210379l-53.506635 72.435753s26.825972 27.04189 28.625968 36.084846a156.070568 156.070568 0 0 0-3.200902 8.705266c-11.541871 4.019547-44.282552 10.504238-44.282552 10.504238l0.138146 71.903633s38.110993 7.93574 45.345768 14.312984a147.857513 147.857513 0 0 0 5.075598 12.122085c-8.7902 10.988262-32.269961 29.317723-32.269961 29.317723l55.21965 71.882144s43.340087-28.052916 50.478671-29.665647a143.244448 143.244448 0 0 0 10.819416 4.250814c6.54609 2.282996 11.137665 44.131103 11.137665 44.131103l71.974242 0.163729s2.417049-41.075511 7.685029-42.709731a140.984988 140.984988 0 0 0 15.298428-5.735631c6.04467 2.360767 34.476209 30.703279 34.476209 30.703279l71.15662-72.453148s-26.411533-18.22713-33.69952-28.059056a148.21567 148.21567 0 0 0 5.412266-12.555967c2.452865-6.551206 46.394656-15.706727 46.394657-15.706727z m-183.085852 54.489008c-50.127677 0-90.798982-40.632419-90.798982-90.768283 0-50.131771 40.671305-90.77033 90.798982-90.77033 50.128701 0 90.795912 40.638559 90.795912 90.77033 0.001023 50.134841-40.666188 90.768283-90.795912 90.768283z" p-id="3205"></path><path d="M541.751093 670.730141c0-127.810944 103.611799-231.422743 231.422743-231.422743 11.978822 0 23.743774 0.909719 35.231409 2.664689V333.372693a46.263673 46.263673 0 0 0-46.279023-46.25651H449.507202l-90.198301-116.15958-1.89721 1.109264v-0.588401H114.546338c-25.545816 0-46.255487 20.708648-46.255487 46.255487v555.068911c0 25.545816 20.709671 46.255487 46.255487 46.255487H595.544253c-33.5757-40.165792-53.79316-91.882664-53.79316-148.32721z" p-id="3206"></path></svg>