<?xml version="1.0" standalone="no"?><!DOCTYPE svg PUBLIC "-//W3C//DTD SVG 1.1//EN" "http://www.w3.org/Graphics/SVG/1.1/DTD/svg11.dtd"><svg t="1520227885525" class="icon" style="" viewBox="0 0 1024 1024" version="1.1" xmlns="http://www.w3.org/2000/svg" p-id="6518" xmlns:xlink="http://www.w3.org/1999/xlink" width="200" height="200"><defs><style type="text/css"></style></defs><path d="M932.501076 276.908704c0-46.813189-38.08541-84.897575-84.896552-84.897575L176.394453 192.011128c-46.811142 0-84.896552 38.08541-84.896552 84.897575l0 475.085252c0 46.813189 38.08541 84.866876 84.896552 84.866876l671.211095 0c46.811142 0 84.896552-38.053688 84.896552-84.866876L932.5021 503.939417c-0.004093-0.542352-0.284479-0.995677-0.319272-1.528819 0.033769-0.551562 0.319272-1.020236 0.319272-1.581008L932.5021 276.908704zM145.686057 281.021372c0-19.188015 15.635095-34.82311 34.82311-34.82311l662.951991 0c19.190061 0 34.82311 15.635095 34.82311 34.82311l0 19.166525L145.686057 300.187897 145.686057 281.021372zM145.686057 353.437681l732.59821 0 0 50.461275L145.686057 403.898957 145.686057 353.437681zM878.284267 747.849566c0 19.190061-15.633049 34.82311-34.82311 34.82311L180.509167 782.672676c-19.188015 0-34.82311-15.633049-34.82311-34.82311L145.686057 457.157951l732.59821 0 0 43.671639c0 0.596588 0.300852 1.095961 0.339738 1.683339-0.038886 0.581238-0.337691 1.071402-0.339738 1.662873L878.284267 747.849566z" p-id="6519"></path><path d="M750.98293 615.700827l0 135.911436 28.798906 0 0-47.664579 27.652803 0c41.875736-0.558725 51.073212-24.949228 51.396577-45.666062-1.234107-18.48398-10.8143-40.847314-49.574069-42.580794L750.98293 615.700827zM829.443909 659.104359c-0.205685 8.492418-3.02694 19.865443-24.508183 20.335141l-25.154913 0 0-39.23049 25.066909 0C825.947272 640.679731 829.002864 651.434679 829.443909 659.104359z" p-id="6520"></path><path d="M699.438996 615.700827l28.180829 0 0 135.911436-28.180829 0 0-135.911436Z" p-id="6521"></path><path d="M622.858854 717.876927c-4.76042-12.723789-14.957667-40.288588-36.614919-99.207489l-1.087774-2.967588-30.767747 0 54.217832 135.911436L636.347053 751.613286l54.305837-135.911436-31.501458 0-1.087774 2.997264C637.053134 677.500335 627.355261 704.917778 622.858854 717.876927z" p-id="6522"></path><path d="M212.825177 638.503159c-9.785877 0-17.749246 7.934716-17.749246 17.71957l0 54.834886c-0.029676 4.730745 1.792832 9.168824 5.142114 12.518105 3.350304 3.378957 7.817036 5.231141 12.607132 5.231141l54.92289 0c9.785877 0 17.749246-7.934716 17.749246-17.71957l0-54.863539c0-9.785877-7.963369-17.71957-17.749246-17.71957L212.825177 638.504182z" p-id="6523"></path></svg>