<?xml version="1.0" standalone="no"?><!DOCTYPE svg PUBLIC "-//W3C//DTD SVG 1.1//EN" "http://www.w3.org/Graphics/SVG/1.1/DTD/svg11.dtd"><svg t="1520228426592" class="icon" style="" viewBox="0 0 1024 1024" version="1.1" xmlns="http://www.w3.org/2000/svg" p-id="1583" xmlns:xlink="http://www.w3.org/1999/xlink" width="200" height="200"><defs><style type="text/css"></style></defs><path d="M699.639053 439.799608l0 53.636594c0 0 26.818809 0 53.646827 0 26.829042 0 26.829042-18.86158 26.829042-27.033703 0-7.976672 0-26.601868-26.829042-26.601868C726.457862 439.799608 699.639053 439.799608 699.639053 439.799608zM762.029008 547.623335l-35.571147 0 0 106.760512-80.474846 0L645.983016 386.143571l134.130883 0c28.526707 0 40.491203 2.416026 54.667064 16.483416 14.223956 14.027481 25.806759 38.0762 25.806759 63.990407 0 26.66122-12.211113 43.478234-27.732621 58.489112C817.432853 540.117384 793.728988 547.623335 762.029008 547.623335zM592.337211 386.143571l0 268.240277-80.473823 0L511.863389 386.143571 592.337211 386.143571zM377.743762 654.383848l-80.474846 0L189.967074 386.143571l80.474846 0 66.083068 185.4282 68.037583-185.4282 80.474846 0L377.743762 654.383848zM158.561807 199.024869c-45.482891 0-93.77578 26.170033-93.77578 79.82607l0 458.59058c0 43.026956 36.513612 85.739756 81.996502 85.739756l730.162742 0c45.481867 0 81.996502-42.712801 81.996502-85.739756L958.941773 278.850939c0-53.656037-60.071144-79.82607-105.554034-79.82607L158.561807 199.024869z" p-id="1584"></path></svg>