<?xml version="1.0" standalone="no"?><!DOCTYPE svg PUBLIC "-//W3C//DTD SVG 1.1//EN" "http://www.w3.org/Graphics/SVG/1.1/DTD/svg11.dtd"><svg t="1522057840967" class="icon" style="" viewBox="0 0 1024 1024" version="1.1" xmlns="http://www.w3.org/2000/svg" p-id="29104" xmlns:xlink="http://www.w3.org/1999/xlink" width="200" height="200"><defs><style type="text/css"></style></defs><path d="M563.2 668.8c12.8-12.8 32-12.8 44.8 0s12.8 32 0 44.8l-182.4 182.4c-73.6 73.6-195.2 73.6-272 0-76.8-73.6-73.6-195.2 0-272l182.4-182.4c73.6-73.6 195.2-73.6 272 0 12.8 12.8 12.8 32 0 44.8-12.8 12.8-32 12.8-44.8 0-51.2-51.2-131.2-51.2-182.4 0l-182.4 182.4c-51.2 51.2-51.2 131.2 0 182.4 51.2 51.2 131.2 51.2 182.4 0l182.4-182.4z m-76.8-320c-12.8 12.8-32 12.8-44.8 0-12.8-12.8-12.8-32 0-44.8l182.4-182.4c73.6-73.6 195.2-73.6 272 0 76.8 73.6 73.6 195.2 0 272l-182.4 182.4c-73.6 73.6-195.2 73.6-272 0-12.8-12.8-12.8-32 0-44.8 12.8-12.8 32-12.8 44.8 0 51.2 51.2 131.2 51.2 182.4 0l182.4-182.4c51.2-51.2 51.2-131.2 0-182.4-51.2-51.2-131.2-51.2-182.4 0l-182.4 182.4z" p-id="29105"></path></svg>