<?xml version="1.0" standalone="no"?><!DOCTYPE svg PUBLIC "-//W3C//DTD SVG 1.1//EN" "http://www.w3.org/Graphics/SVG/1.1/DTD/svg11.dtd"><svg t="1522057931727" class="icon" style="" viewBox="0 0 1024 1024" version="1.1" xmlns="http://www.w3.org/2000/svg" p-id="29735" xmlns:xlink="http://www.w3.org/1999/xlink" width="200" height="200"><defs><style type="text/css"></style></defs><path d="M896 64H128c-35.2 0-64 28.8-64 64v768c0 35.2 28.8 64 64 64h768c35.2 0 64-28.8 64-64V128c0-35.2-28.8-64-64-64z m0 800c0 19.2-12.8 32-32 32H160c-19.2 0-32-12.8-32-32V160c0-19.2 12.8-32 32-32h704c19.2 0 32 12.8 32 32v704z" fill="#333333" p-id="29736"></path><path d="M592 240L476.8 352c-12.8 12.8-12.8 32 0 44.8 12.8 12.8 32 12.8 44.8 0l112-112c25.6-25.6 64-25.6 89.6 0 25.6 25.6 25.6 64 0 89.6L592 512c-25.6 25.6-64 25.6-89.6 0-12.8-12.8-32-12.8-44.8 0s-12.8 32 0 44.8c51.2 51.2 131.2 51.2 182.4 0l137.6-137.6c51.2-51.2 51.2-131.2 0-182.4-54.4-48-137.6-48-185.6 3.2z" fill="#333333" p-id="29737"></path><path d="M489.6 611.2l-112 112c-25.6 25.6-64 25.6-89.6 0-25.6-25.6-25.6-64 0-89.6l134.4-134.4c25.6-25.6 64-25.6 89.6 0 12.8 12.8 32 12.8 44.8 0 12.8-12.8 12.8-32 0-44.8-51.2-51.2-131.2-51.2-182.4 0L236.8 592C192 640 192 720 240 771.2c51.2 51.2 131.2 51.2 182.4 0l112-112c12.8-12.8 12.8-32 0-44.8-12.8-16-32-16-44.8-3.2z" fill="#333333" p-id="29738"></path></svg>