<?xml version="1.0" standalone="no"?><!DOCTYPE svg PUBLIC "-//W3C//DTD SVG 1.1//EN" "http://www.w3.org/Graphics/SVG/1.1/DTD/svg11.dtd"><svg t="1522057540615" class="icon" style="" viewBox="0 0 1024 1024" version="1.1" xmlns="http://www.w3.org/2000/svg" p-id="28726" xmlns:xlink="http://www.w3.org/1999/xlink" width="200" height="200"><defs><style type="text/css"></style></defs><path d="M225.35 216.72v222.625h61.727V216.72h84.138v-50.492H141.211v50.492h84.139z m214.488-5.739v-44.754h-55.83v44.754h55.83z m-55.83 30.602v197.762h55.83V241.583h-55.83z m155.514 0v-59.29h-55.83v59.29h-33.813v36.34h33.813V394.59c0 9.945 1.704 17.978 5.111 24.098 3.408 6.12 8.06 10.838 13.958 14.154 5.897 3.315 12.712 5.546 20.444 6.694 7.733 1.147 15.924 1.72 24.573 1.72 5.505 0 11.14-0.127 16.907-0.382 5.766-0.255 11.008-0.765 15.726-1.53v-42.077a80.26 80.26 0 0 1-8.256 1.148c-2.883 0.255-5.898 0.382-9.043 0.382-9.436 0-15.727-1.53-18.872-4.59-3.146-3.06-4.718-9.18-4.718-18.36v-97.926h40.89v-36.34h-40.89z m54.076-75.356v273.118h55.83V166.227h-55.83z m221.566 153.007H724.34c0.263-3.825 1.114-8.16 2.556-13.005 1.442-4.846 3.932-9.436 7.47-13.771 3.539-4.335 8.257-7.97 14.154-10.902 5.898-2.932 13.303-4.399 22.214-4.399 13.63 0 23.787 3.57 30.471 10.71 6.684 7.141 11.336 17.597 13.958 31.367z m-90.823 34.427h146.653c1.048-15.3-0.263-29.964-3.932-43.99-3.67-14.025-9.633-26.52-17.89-37.487-8.256-10.965-18.806-19.7-31.65-26.202-12.843-6.503-27.914-9.754-45.214-9.754-15.465 0-29.553 2.677-42.266 8.033-12.712 5.355-23.655 12.686-32.83 21.994-9.173 9.308-16.25 20.338-21.23 33.088-4.98 12.751-7.47 26.522-7.47 41.312 0 15.301 2.424 29.327 7.273 42.078 4.85 12.75 11.73 23.716 20.641 32.896 8.912 9.18 19.79 16.257 32.634 21.23 12.843 4.973 27.26 7.46 43.248 7.46 23.066 0 42.724-5.101 58.975-15.302 16.252-10.2 28.309-27.158 36.172-50.875h-49.146c-1.835 6.12-6.815 11.922-14.94 17.405-8.126 5.483-17.824 8.224-29.095 8.224-15.727 0-27.784-3.953-36.172-11.858-8.387-7.905-12.974-20.656-13.76-38.252z m-583.13 183.354H882.79v46.349H141.21v-46.349z m0 139.046H882.79v46.349H141.21V676.06z m0 139.046h556.183v46.348H141.211v-46.348z" p-id="28727"></path></svg>