<?xml version="1.0" standalone="no"?><!DOCTYPE svg PUBLIC "-//W3C//DTD SVG 1.1//EN" "http://www.w3.org/Graphics/SVG/1.1/DTD/svg11.dtd"><svg t="1517809034887" class="icon" style="" viewBox="0 0 1024 1024" version="1.1" xmlns="http://www.w3.org/2000/svg" p-id="1944" xmlns:xlink="http://www.w3.org/1999/xlink" width="200" height="200"><defs><style type="text/css"></style></defs><path d="M930.724105 63.620993l-714.267726 0c-14.693654 0-26.605961 11.896958-26.605961 26.573215l0 419.675268 0 2.130524 38.373982 0 0-3.665483L228.2244 129.135102c0-13.208836 10.721179-23.916712 23.945365-23.916712l642.839931 0c13.225209 0 23.945365 10.707876 23.945365 23.916712l0 700.920744c0 13.207813-10.721179 23.915689-23.945365 23.915689L252.170788 853.971535c-13.225209 0-23.945365-10.707876-23.945365-23.915689L228.225423 704.799074l-38.373982 0 0 164.196643c0 14.675234 11.912307 26.573215 26.605961 26.573215l714.267726 0c14.693654 0 26.605961-11.897981 26.605961-26.573215L957.33109 90.194208C957.330066 75.518974 945.418782 63.620993 930.724105 63.620993z" p-id="1945" fill="#929292"></path><path d="M942.314071 92.242867 525.337261 208.249975c-8.578376 2.38635-15.532765 15.029298-15.532765 28.237111l0 700.92279c0 13.207813 6.954389 21.98164 15.532765 19.59529L942.314071 840.997036c8.578376-2.38635 15.532765-15.029298 15.532765-28.236088L957.846836 111.838158C957.845813 98.629321 950.891424 89.856517 942.314071 92.242867z" p-id="1946" fill="#929292"></path><path d="M435.952488 579.500347l-14.144138-8.625448L333.243245 516.872984c-12.050454-7.347339-27.458375-2.987031-34.414811 9.737782l-5.327332 9.746992c-6.956436 12.724813-2.828418 28.996404 9.219989 36.343743l5.196349 3.168156L89.952196 575.869656c-13.914918 0-25.194822 11.912307-25.194822 26.605961l0 11.253298c0 14.693654 11.279904 26.605961 25.194822 26.605961l217.269395 0-5.402033 3.294023c-12.04943 7.348362-16.177448 23.61893-9.221012 36.34579l5.328355 9.744945c6.955412 12.725836 22.363334 17.084097 34.412764 9.739828l89.134063-54.348816 16.053628-9.787924c6.402827-7.02602 10.343579-16.571421 10.343579-27.094078C447.871959 596.866876 443.280384 586.642001 435.952488 579.500347zM413.599388 569.244772c0.73678 0.057305 1.461281 0.152473 2.184759 0.254803C415.059646 569.396221 414.334121 569.302077 413.599388 569.244772z" p-id="1947" fill="#929292"></path></svg>