<?xml version="1.0" standalone="no"?><!DOCTYPE svg PUBLIC "-//W3C//DTD SVG 1.1//EN" "http://www.w3.org/Graphics/SVG/1.1/DTD/svg11.dtd"><svg t="1509957739496" class="icon" style="" viewBox="0 0 1025 1024" version="1.1" xmlns="http://www.w3.org/2000/svg" p-id="2697" xmlns:xlink="http://www.w3.org/1999/xlink" width="200.1953125" height="200"><defs><style type="text/css"></style></defs><path d="M683.290269 511.804319a170.947098 170.947098 0 1 1-170.947098-170.678252 171.13913 171.13913 0 0 1 170.947098 170.678252z m341.394911-72.664998a23.88881 23.88881 0 0 0-18.857566-24.00403l-122.209315-18.70394a367.47289 367.47289 0 0 0-27.345391-65.290961c22.69821-31.339661 47.393556-60.682187 70.091767-91.330532a25.233036 25.233036 0 0 0 5.376902-15.362579 22.659804 22.659804 0 0 0-4.685586-14.632856 844.250529 844.250529 0 0 0-110.188098-113.375833 26.385229 26.385229 0 0 0-16.706805-6.644316 22.69821 22.69821 0 0 0-16.015488 5.991406l-94.825519 71.359179a391.476919 391.476919 0 0 0-60.106091-24.695345L610.510051 19.77932a23.466339 23.466339 0 0 0-24.042437-19.472068h-148.248887a24.00403 24.00403 0 0 0-24.042436 18.127843 873.401022 873.401022 0 0 0-19.203224 124.014419 405.840931 405.840931 0 0 0-60.759 25.348255l-92.175474-71.359179a29.688184 29.688184 0 0 0-17.359714-6.644316c-22.69821 0-112.838143 97.321938-128.853631 119.328833a25.885946 25.885946 0 0 0-6.029812 15.362579 24.580126 24.580126 0 0 0 6.682721 16.015488 1565.830864 1565.830864 0 0 1 71.435993 92.175474 354.261072 354.261072 0 0 0-26.039572 61.450316l-124.206451 18.665534a25.847539 25.847539 0 0 0-18.012624 24.004029v148.018449a24.311281 24.311281 0 0 0 19.203224 24.004029l122.209316 18.012624a352.148717 352.148717 0 0 0 27.383797 65.982277c-22.69821 31.339661-47.431963 60.682187-70.130173 91.368939a25.07941 25.07941 0 0 0-5.338496 15.362579 25.809133 25.809133 0 0 0 4.685586 15.362579 831.883652 831.883652 0 0 0 110.188098 112.031607 23.927217 23.927217 0 0 0 16.668398 7.335631 25.540288 25.540288 0 0 0 16.706805-6.029812l94.172609-71.320773a387.098584 387.098584 0 0 0 60.067684 24.65694l18.70394 122.900631a23.850404 23.850404 0 0 0 24.042436 19.971353h148.248887a24.426501 24.426501 0 0 0 24.042437-18.665533 867.102365 867.102365 0 0 0 19.203223-124.014419 403.728576 403.728576 0 0 0 60.797407-25.309849l92.175474 71.973682a33.912893 33.912893 0 0 0 17.359714 6.029813c22.69821 0 112.876549-98.013254 128.892038-119.367239a22.237333 22.237333 0 0 0 5.991405-15.362579 26.116384 26.116384 0 0 0-6.682721-16.668398c-24.695346-29.995435-48.737782-59.337961-71.435993-92.175474a375.960714 375.960714 0 0 0 26.039572-60.682187l123.553541-18.665534a25.117817 25.117817 0 0 0 18.16625-24.004029v-148.287294z" p-id="2698"></path></svg>