<?xml version="1.0" standalone="no"?><!DOCTYPE svg PUBLIC "-//W3C//DTD SVG 1.1//EN" "http://www.w3.org/Graphics/SVG/1.1/DTD/svg11.dtd"><svg t="1520234981346" class="icon" style="" viewBox="0 0 1024 1024" version="1.1" xmlns="http://www.w3.org/2000/svg" p-id="1925" xmlns:xlink="http://www.w3.org/1999/xlink" width="200" height="200"><defs><style type="text/css"></style></defs><path d="M852.809 743.795c10.447 0 17.823 7.935 17.823 17.684 0 9.754-7.375 16.583-17.823 16.583h-75.522v47.27c0 8.242-8.109 14.939-18.13 14.939-9.983 0-17.008-6.697-17.008-14.939v-47.27h-60.411c-10.448 0-18.922-6.831-18.922-16.583 0-9.749 8.474-17.684 18.922-17.684h60.411v-34.227h-60.411c-10.448 0-18.922-6.796-18.922-16.583 0-9.754 8.474-17.648 18.922-17.648h49.577l-55.207-59.735c-4.972-5.457-2.94-15.168 4.547-21.63 7.469-6.462 17.57-7.314 22.56-1.858l56.484 62.23 55.401-62.23c4.973-5.457 15.075-4.604 22.559 1.858 7.471 6.463 9.502 16.173 4.548 21.63l-55.223 59.735h64.726c10.448 0 18.924 7.894 18.924 17.648 0 9.789-8.476 16.583-18.924 16.583h-74.421v34.227h75.522zM760.565 478.827c-125.433 0-227.107 99.164-227.107 221.45 0 122.285 101.675 221.451 227.107 221.451 125.417 0 227.072-99.166 227.072-221.451 0.001-122.286-101.655-221.45-227.072-221.45zM467.378 706.363c0-137.683 99.002-252.758 231.37-281.35 11.883-27.994 18.469-58.643 18.469-90.825 0-131.281-109.129-237.715-243.777-237.715s-243.812 106.433-243.812 237.715c0 96.214 58.717 178.847 142.994 216.268-177.052 43.038-313.835 190.635-337.167 370.828h530.642c-60.55-52.766-98.72-129.485-98.72-214.919z" p-id="1926"></path></svg>