<?xml version="1.0" standalone="no"?><!DOCTYPE svg PUBLIC "-//W3C//DTD SVG 1.1//EN" "http://www.w3.org/Graphics/SVG/1.1/DTD/svg11.dtd"><svg t="1520226505635" class="icon" style="" viewBox="0 0 1024 1024" version="1.1" xmlns="http://www.w3.org/2000/svg" p-id="2693" xmlns:xlink="http://www.w3.org/1999/xlink" width="200" height="200"><defs><style type="text/css"></style></defs><path d="M874.523617 853.618495 145.137565 853.618495 145.137565 793.486976 88.930425 793.486976 88.930425 910.074298 929.765779 910.074298 929.765779 793.486976 874.523617 793.486976Z" p-id="2694"></path><path d="M928.177608 497.909074 536.657586 317.578985c2.117221-5.386684 7.473205-11.490705 11.615549-14.386662 21.081131-14.604626 33.101909-26.749224 40.232306-40.637536 8.376785-16.379039 12.455683-33.568537 12.455683-52.564169 0-23.572882-10.556427-51.940976-24.569582-66.047252-14.354939-14.449084-42.847877-30.018687-71.403237-30.018687-40.762379 0-65.736167 22.949688-74.579579 32.821523-12.580526 14.043854-20.676925 39.515992-20.676925 64.957431 0 29.893844 17.250896 47.176462 22.51376 51.754734 6.009877 5.200442 14.136975 9.529027 19.088754 11.583826 2.989077 1.650593 6.383384 2.52245 9.840112 2.52245 10.587126 0 25.877367-6.415107 25.877367-18.061354 0-9.341762-7.567349-21.517059-17.375739-23.385617-3.64297-1.836835-14.479783-8.65717-14.479783-24.414039 0-24.133653 13.078877-49.948599 49.792033-49.948599 14.199397 0 27.122731 5.13802 36.433794 14.479783 6.974855 7.068999 14.075577 20.925588 14.075577 33.755802 0 26.281573-12.985756 38.145785-40.481993 57.20384-16.037255 11.117199-26.095331 34.969443-28.337395 48.982598L89.864704 498.033917l-0.934279 0.435928 0 116.02655 840.835354 0L929.765779 497.909074 928.177608 497.909074zM497.951029 371.481639c2.802836 0.311085 9.216919 0.405229 23.821545 0.560772l350.851786 155.26318 0 31.699979L144.172587 559.00557l0-32.012088 353.809141-155.449421L497.951029 371.481639z" p-id="2695"></path><path d="M874.523617 711.028962 144.172587 711.028962 144.172587 648.064932 88.930425 648.064932 88.930425 764.652254 929.765779 764.652254 929.765779 648.064932 874.523617 648.064932Z" p-id="2696"></path></svg>