<?xml version="1.0" standalone="no"?><!DOCTYPE svg PUBLIC "-//W3C//DTD SVG 1.1//EN" "http://www.w3.org/Graphics/SVG/1.1/DTD/svg11.dtd"><svg t="1516592108120" class="icon" style="" viewBox="0 0 1024 1024" version="1.1" xmlns="http://www.w3.org/2000/svg" p-id="1414" xmlns:xlink="http://www.w3.org/1999/xlink" width="32" height="32"><defs><style type="text/css"></style></defs><path d="M119.14544 819.455357V262.596893c0-7.317708 5.963108-13.280817 13.267506-13.280816h276.815588c6.883581 47.370055 47.767322 83.882829 97.013135 83.882829s90.129553-36.512775 97.013134-83.882829h285.295407c7.303374 0 13.267506 5.963108 13.267506 13.280816v327.161054h56.021886V262.596893c0-38.214472-31.07492-69.302702-69.289392-69.302702H604.279713v-70.178124c0-15.468859-12.528261-28.011455-28.011455-28.011455H436.213032c-15.483194 0-28.011455 12.541571-28.011455 28.011455v70.178124H132.412946c-38.214472 0-69.289392 31.08823-69.289392 69.302702v556.85744c0 38.201161 31.07492 69.289392 69.289392 69.289392h448.014334v-56.021886H132.412946c-7.304398 0-13.267506-5.949798-13.267506-13.266482z m345.079047-668.328859h84.03334v84.03334c0 23.169501-18.847681 42.017182-42.016158 42.017182-23.169501 0-42.017182-18.847681-42.017182-42.017182v-84.03334z" fill="#d81e06" p-id="1415"></path><path d="M174.730126 661.960292v52.042044c0 15.468859 12.528261 28.011455 28.011455 28.011454h343.902603c15.483194 0 28.011455-12.542595 28.011455-28.011454v-52.042044a28.006335 28.006335 0 0 0-15.483194-25.056521l-103.23631-51.604844 26.69781-38.844162a28.064697 28.064697 0 0 0 4.923865-15.866127V448.608188c0-60.891484-48.664246-108.584063-110.78644-108.584063-62.122194 0-110.78644 47.692578-110.78644 108.584063v81.981474a27.905995 27.905995 0 0 0 5.197242 16.234726l27.190298 38.255427-107.722975 51.618155a28.006335 28.006335 0 0 0-15.919369 25.262322z m56.021886 17.644616l121.837234-58.374774a27.933639 27.933639 0 0 0 15.017326-18.258947 27.869135 27.869135 0 0 0-4.294175-23.238101l-41.305582-58.087062V448.608188c0-29.474587 24.044923-52.562177 54.763531-52.562177 30.719631 0 54.764554 23.08759 54.764554 52.562177v73.282544l-40.019582 58.210953a28.00224 28.00224 0 0 0-4.048442 22.868478c2.051866 7.836818 7.358664 14.429616 14.607772 18.05417l116.558081 58.251908v6.715664H230.752012v-6.386997zM949.112003 880.729774l-86.973938-81.865775 86.973938-81.865775c11.269906-10.600285 11.79004-28.325788 1.203066-39.595693-10.64124-11.28424-28.366743-11.80335-39.609004-1.189755l-89.436383 84.182828-89.436383-84.182828c-11.269906-10.613595-28.968787-10.093462-39.610028 1.189755-10.58595 11.269906-10.066841 28.995409 1.204089 39.595693l86.973939 81.865775-86.973939 81.865775c-11.269906 10.600285-11.79004 28.325788-1.204089 39.595694a27.993025 27.993025 0 0 0 20.407058 8.808485c6.89382 0 13.786616-2.51671 19.20297-7.617707l89.436383-84.182827 89.436383 84.182827c5.416353 5.102021 12.309149 7.617707 19.202969 7.617707a27.984834 27.984834 0 0 0 20.406035-8.808485c10.586974-11.27093 10.066841-28.996432-1.203066-39.595694zM765.344041 563.497336c0-15.468859-12.528261-28.011455-28.011454-28.011454H623.510327c-15.483194 0-28.011455 12.542595-28.011455 28.011454s12.528261 28.011455 28.011455 28.011455h113.82226c15.483194 0 28.011455-12.541571 28.011454-28.011455zM623.510327 416.739757c-15.483194 0-28.011455 12.542595-28.011455 28.011455s12.528261 28.011455 28.011455 28.011455h178.243077c15.48217 0 28.011455-12.542595 28.011454-28.011455s-12.528261-28.011455-28.011454-28.011455H623.510327z" fill="#d81e06" p-id="1416"></path></svg>