<?xml version="1.0" standalone="no"?><!DOCTYPE svg PUBLIC "-//W3C//DTD SVG 1.1//EN" "http://www.w3.org/Graphics/SVG/1.1/DTD/svg11.dtd"><svg t="1532427410030" class="icon" style="" viewBox="0 0 1024 1024" version="1.1" xmlns="http://www.w3.org/2000/svg" p-id="1199" xmlns:xlink="http://www.w3.org/1999/xlink" width="200" height="200"><defs><style type="text/css"></style></defs><path d="M416 896H185.6C148.8 896 112 873.6 112 836.8V131.2C112 91.2 150.4 64 185.6 64h329.6C550.4 64 576 91.2 576 131.2V496c0 9.6-6.4 16-16 16s-16-6.4-16-16V131.2c0-16-8-35.2-28.8-35.2H185.6C166.4 96 144 112 144 131.2v705.6c0 17.6 22.4 27.2 41.6 27.2H416c9.6 0 16 6.4 16 16s-6.4 16-16 16z" fill="#9e9f9f" p-id="1200"></path><path d="M560 224H144c-9.6 0-16-6.4-16-16s6.4-16 16-16h416c9.6 0 16 6.4 16 16s-6.4 16-16 16zM368 768H144c-9.6 0-16-6.4-16-16s6.4-16 16-16h224c9.6 0 16 6.4 16 16s-6.4 16-16 16zM320 800h64v32h-64zM320 128h128v32h-128zM256 128h32v32h-32zM668.8 956.8h-64c-4.8 0-8-1.6-11.2-4.8-3.2-3.2-4.8-8-4.8-11.2l1.6-35.2c-12.8-3.2-24-8-35.2-14.4L528 918.4c-3.2 3.2-6.4 4.8-11.2 4.8-4.8 0-8-1.6-11.2-4.8l-48-49.6c-3.2-3.2-4.8-6.4-4.8-11.2 0-4.8 1.6-8 4.8-11.2l27.2-27.2c-6.4-11.2-11.2-24-14.4-36.8H432c-9.6 0-16-6.4-16-16v-64c0-9.6 6.4-16 16-16h35.2c3.2-12.8 9.6-25.6 16-36.8l-25.6-27.2c-3.2-3.2-4.8-6.4-4.8-11.2 0-4.8 1.6-8 4.8-11.2l49.6-48c6.4-6.4 16-6.4 22.4 0l25.6 25.6c11.2-6.4 24-11.2 36.8-14.4v-33.6c0-9.6 6.4-16 16-16h64c9.6 0 16 6.4 16 16v35.2c12.8 4.8 25.6 9.6 36.8 16l27.2-27.2c3.2-3.2 6.4-4.8 11.2-4.8 4.8 0 8 1.6 11.2 4.8l48 49.6c6.4 6.4 6.4 16 0 22.4l-28.8 27.2c6.4 11.2 11.2 24 14.4 35.2l35.2-1.6c4.8 0 8 1.6 11.2 4.8 3.2 3.2 4.8 6.4 4.8 11.2v64c0 4.8-1.6 8-4.8 11.2-3.2 3.2-8 4.8-11.2 4.8h-35.2c-3.2 12.8-8 24-14.4 35.2l28.8 30.4c6.4 6.4 6.4 16 0 22.4l-49.6 48c-6.4 6.4-16 6.4-22.4 0l-28.8-28.8c-11.2 6.4-24 11.2-36.8 14.4v35.2c0 11.2-6.4 17.6-16 17.6z m-48-32h32v-32c0-8 4.8-14.4 12.8-16 17.6-3.2 35.2-11.2 51.2-20.8 6.4-3.2 14.4-3.2 19.2 3.2l25.6 25.6 27.2-25.6-25.6-27.2c-4.8-4.8-6.4-12.8-1.6-19.2 9.6-16 16-32 20.8-49.6 1.6-8 8-12.8 16-12.8h32v-32l-32 1.6c-8 0-14.4-4.8-16-12.8-3.2-17.6-9.6-35.2-19.2-49.6-3.2-6.4-3.2-14.4 3.2-19.2l25.6-25.6-25.6-27.2-25.6 25.6c-4.8 4.8-14.4 6.4-19.2 1.6-16-9.6-32-17.6-49.6-22.4-6.4-1.6-12.8-8-12.8-16v-32h-32V576c0 8-4.8 14.4-12.8 16-17.6 3.2-35.2 11.2-51.2 19.2-6.4 3.2-14.4 3.2-19.2-3.2l-22.4-24-27.2 25.6 24 24c4.8 4.8 6.4 12.8 1.6 19.2-9.6 16-17.6 32-20.8 51.2-1.6 8-8 12.8-16 12.8h-32v32h32c8 0 14.4 4.8 16 12.8 4.8 17.6 11.2 35.2 20.8 51.2 3.2 6.4 3.2 14.4-3.2 19.2l-25.6 24 25.6 27.2 24-24c4.8-4.8 12.8-6.4 19.2-1.6 16 9.6 32 16 49.6 20.8 8 1.6 12.8 8 12.8 16l-1.6 30.4z m17.6-94.4c-24 0-49.6-9.6-67.2-28.8-17.6-17.6-27.2-41.6-27.2-67.2s11.2-49.6 28.8-67.2c36.8-36.8 97.6-36.8 134.4 1.6 36.8 36.8 36.8 97.6-1.6 134.4-19.2 17.6-43.2 27.2-67.2 27.2z m-44.8-51.2c12.8 12.8 27.2 19.2 44.8 19.2 17.6 0 32-6.4 44.8-17.6 24-24 25.6-64 0-89.6-11.2-12.8-27.2-19.2-44.8-19.2-16 0-32 6.4-44.8 17.6-12.8 11.2-19.2 27.2-19.2 44.8 0 17.6 6.4 33.6 19.2 44.8z" fill="#9e9f9f" p-id="1201"></path></svg>