<?xml version="1.0" standalone="no"?><!DOCTYPE svg PUBLIC "-//W3C//DTD SVG 1.1//EN" "http://www.w3.org/Graphics/SVG/1.1/DTD/svg11.dtd"><svg t="1510671302653" class="icon" style="" viewBox="0 0 1024 1024" version="1.1" xmlns="http://www.w3.org/2000/svg" p-id="5363" xmlns:xlink="http://www.w3.org/1999/xlink" width="200" height="200"><defs><style type="text/css"></style></defs><path d="M511.488 3.584c70.144 0 136.192 13.312 198.656 40.448 61.952 26.624 115.712 62.976 161.792 109.056 45.568 45.568 81.92 99.328 109.056 161.28 26.624 61.44 40.448 127.488 40.448 198.144 0 70.656-13.312 136.704-40.448 198.656-27.136 61.952-62.976 115.712-109.056 161.792-45.568 45.568-99.84 81.92-161.792 109.056-61.952 26.624-128 40.448-198.656 40.448-70.144 0-136.192-13.312-197.632-40.448-61.44-27.136-115.2-62.976-160.768-109.056s-81.92-99.84-109.056-161.792c-27.136-61.952-40.448-128-40.448-198.656 0-70.144 13.312-136.192 40.448-198.144 26.624-61.44 62.976-115.2 109.056-161.28 45.568-45.568 99.328-81.92 160.768-109.056C375.296 16.896 441.344 3.584 511.488 3.584z m252.928 571.904c22.528 0 43.008-0.512 61.44-12.288 17.92-11.776 27.136-29.184 27.136-52.736 0-22.528-9.216-39.424-27.136-50.688-18.432-10.752-38.4-11.264-61.44-11.264H263.168c-22.528 0-43.52 0.512-62.464 11.264-18.944 10.752-28.16 27.648-28.16 50.688 0 23.552 9.216 40.96 28.16 52.736 18.944 11.776 39.936 12.288 62.464 12.288h501.248z" p-id="5364"></path></svg>