<?xml version="1.0" standalone="no"?><!DOCTYPE svg PUBLIC "-//W3C//DTD SVG 1.1//EN" "http://www.w3.org/Graphics/SVG/1.1/DTD/svg11.dtd"><svg t="1509957565638" class="icon" style="" viewBox="0 0 1024 1024" version="1.1" xmlns="http://www.w3.org/2000/svg" p-id="2473" xmlns:xlink="http://www.w3.org/1999/xlink" width="200" height="200"><defs><style type="text/css"></style></defs><path d="M447.485661 142.572136c-64.403822 99.971899-31.741935 173.2089-31.741935 173.2089s-25.006534-41.077557-37.445844 0c-12.545734 41.162492 8.278547 57.622372 52.072983 108.996437 43.685965 51.436486 110.343107 129.587404 162.372087 148.103106 52.137451 18.515702 141.590785-76.075653 193.663768-137.744177 52.071959-61.732993 49.928133-96.709599 35.343973-119.356389-14.521738-22.6253-22.841218 0-22.841218 0s18.7439-105.861026-31.312146-169.606862c-83.877339-107.088994-255.579933-103.529935-320.111668-3.601015z m34.356482 447.25644s29.597085 85.818551 57.134255 144.311757c27.409257 58.553581 25.328875 37.644365 25.328875 37.644365s21.123087-77.345576 21.123087-94.081749c0-16.73515-29.616528-31.417547-19.043729-58.554604 10.595312-27.202549 44.415582-37.646412 69.807902-20.868283 25.351388 16.629749 23.312962 29.193903 10.531868 56.459896-12.654204 27.13808-14.755052 41.820478-14.755052 41.820478l27.429722 79.400375 78.259389-179.77648c23.870664-54.848189 231.04412 160.157653 218.540341 275.934516-13.059434 120.054283-700.616822 95.691409-700.616822 33.535791-0.001023-158.338215 76.284407-262.822894 226.260164-315.826062z" p-id="2474"></path><path d="M67.257823 447.803909c0-1.991354 166.190043-151.09116 173.73795-158.3771 24.042579 23.409153 169.68668 158.3771 169.68668 158.3771v124.673487c0 32.159444-82.655512 24.02416-146.608055 131.24209-69.01484 115.626437-35.130102 226.40138-64.618717 228.67005-28.330232 2.289136-61.080124-0.657986-97.903797-0.657986-18.872836 0-34.293037-11.629875-34.293037-25.759687l-0.001024-458.167954z m169.57821-58.385759c-51.407833 0-93.120864 41.267892-93.120864 92.027974 0 50.822502 41.714054 92.049462 93.120864 92.049462 51.450812 0 93.228311-41.225937 93.228311-92.049462 0-50.760081-41.777499-92.027973-93.228311-92.027974z" p-id="2475"></path></svg>