<?xml version="1.0" standalone="no"?><!DOCTYPE svg PUBLIC "-//W3C//DTD SVG 1.1//EN" "http://www.w3.org/Graphics/SVG/1.1/DTD/svg11.dtd"><svg t="1510671318056" class="icon" style="" viewBox="0 0 1024 1024" version="1.1" xmlns="http://www.w3.org/2000/svg" p-id="5605" xmlns:xlink="http://www.w3.org/1999/xlink" width="200" height="200"><defs><style type="text/css"></style></defs><path d="M340.924 679.518l218.315-61.982L403.3 462.552l-62.377 216.966z m583.09-424.533L768.076 100l-343.07 340.96 155.937 154.97 343.073-340.944z m-45.443 573.928c0 53.853-43.67 97.543-97.54 97.543H195.766c-53.884 0-97.544-43.691-97.544-97.543V243.648c0-53.884 43.661-97.543 97.544-97.543H585.94l97.546-97.546H163.252C73.456 48.56 0.679 121.336 0.679 211.133v650.293C0.68 951.226 73.457 1024 163.252 1024h650.294c89.78 0 162.572-72.777 162.572-162.573V341.191l-97.547 97.545v390.177z m117.92-704.116l-97.467-96.86c-16.148-16.052-43.2-15.178-60.425 1.936l-46.79 46.486 155.94 154.985 46.787-46.5c17.225-17.115 18.1-43.994 1.954-60.047z" p-id="5606"></path></svg>