<?xml version="1.0" standalone="no"?><!DOCTYPE svg PUBLIC "-//W3C//DTD SVG 1.1//EN" "http://www.w3.org/Graphics/SVG/1.1/DTD/svg11.dtd"><svg t="1526005805888" class="icon" style="" viewBox="0 0 1024 1024" version="1.1" xmlns="http://www.w3.org/2000/svg" p-id="1052" xmlns:xlink="http://www.w3.org/1999/xlink" width="200" height="200"><defs><style type="text/css"></style></defs><path d="M512.763898 64.566528c-247.25636 0-447.696462 200.441125-447.696462 447.696462 0 247.25636 200.440102 447.696462 447.696462 447.696462 247.257383 0 447.697485-200.440102 447.697485-447.696462C960.461383 265.008676 760.021282 64.566528 512.763898 64.566528zM530.368858 610.874915c-0.11154 17.402345-0.071631 33.596166-10.250458 50.707892-30.713512 51.607378-75.218122 87.662549-124.447337 118.991068-8.644891 5.494131-20.525476 5.913687-23.746844 6.763031-93.76657 1.512447-148.33028-85.268012-104.090707-158.411893 27.040866-44.706201 62.33879-83.940784 110.358457-109.985974 18.378579-9.969049 36.198433-10.92584 55.157227-10.283204 8.676613 0.298805 23.528879-2.915399 22.799262 9.8176-0.578168 10.138918-6.828522 22.299889-23.601534 22.783913-74.679863 2.136663-104.917538 63.962777-142.120858 112.677269-18.516726 24.260543-7.479345 57.487296 14.94948 78.17957 22.542412 20.806885 53.263088 35.848463 81.708953 14.285355 48.03297-36.422538 106.805538-66.083068 111.466698-138.152477 0.73678-11.452843 6.569626-17.770735 18.041912-17.794271C530.761807 590.437443 530.426163 601.694835 530.368858 610.874915zM594.16279 422.973384c7.062859-7.16519 12.94994-13.656021 24.149003-10.876722 8.732895 2.168386 8.717546 9.260921 9.142218 10.81123 2.539846 15.456017-6.692423 18.219967-12.242835 23.818475-58.480926 58.885132-116.839055 117.916597-175.194114 176.937828-9.558703 9.656941-20.790512 23.473621-33.949206 12.106736-14.235213-12.298094-1.108241-23.000853 8.965186-33.008788C475.073484 543.153534 534.746562 483.192907 594.16279 422.973384zM763.035942 418.345993c-31.517831 46.611597-71.219041 84.367503-118.164237 115.070782-8.709359 5.686513-17.932418 7.840572-27.129894 6.746658-13.441127-1.605567-34.922371 9.610892-38.392402-10.155291-4.161786-23.722284 19.265786-18.316158 33.972742-23.296589 60.5961-20.467147 100.18577-66.724681 128.726803-120.333646 12.975523-24.347524 2.402723-55.599296-21.972431-72.888054-25.921369-18.398022-56.843636-32.832779-85.98842-6.843872-43.812855 39.09132-104.403838 66.685795-103.262852 139.388631 0.200568 12.574387-8.477069 16.814967-18.606777 17.152658-13.959943 0.465604-12.241812-11.126408-14.009062-20.324908-5.315052-27.637454 4.739954-52.979632 20.413935-72.317049 28.719088-35.437094 59.518558-70.117964 99.679233-93.783966 32.416294-19.10308 64.532759-22.957875 99.607602-2.473331 37.304627 21.804608 57.500599 51.79362 60.007699 94.139054C779.06194 387.150504 773.438872 402.953422 763.035942 418.345993z" p-id="1053" fill="#1296db"></path></svg>