<?xml version="1.0" standalone="no"?><!DOCTYPE svg PUBLIC "-//W3C//DTD SVG 1.1//EN" "http://www.w3.org/Graphics/SVG/1.1/DTD/svg11.dtd"><svg t="1510015623196" class="icon" style="" viewBox="0 0 1024 1024" version="1.1" xmlns="http://www.w3.org/2000/svg" p-id="12055" xmlns:xlink="http://www.w3.org/1999/xlink" width="200" height="200"><defs><style type="text/css"></style></defs><path d="M284.450982 876.395244" p-id="12056"></path><path d="M191.12648 590.885652c-42.8489-45.337581-32.405037-85.748966-29.564339-94.108355 4.950755-14.58416 23.210631-35.349089 85.887113-39.344077l-0.085958 107.193371 188.810227-154.183592-188.577936-149.965523-0.068562 92.325755c-20.249183 1.670036-178.927135 21.041222-180.950212 135.837758 0 0-7.120165 73.703629 75.219145 128.286782 25.939789 17.201777 58.018392 30.90794 148.208507 43.787272C290.004465 660.715043 231.718991 633.8113 191.12648 590.885652z" p-id="12057"></path><path d="M830.151525 469.899136c42.847877 45.336558 32.405037 85.748966 29.564339 94.108355-4.950755 14.58416-23.210631 35.350113-85.886089 39.344077l0.085958-107.193371L585.104483 650.341788l188.577936 149.965523 0.068562-92.326778c20.249183-1.670036 178.927135-21.041222 180.950212-135.837758 0 0 7.120165-73.703629-75.220169-128.286782-25.939789-17.201777-58.017368-30.90794-148.208507-43.787272C731.273541 400.068721 789.557992 426.972465 830.151525 469.899136z" p-id="12058"></path><path d="M305.51881 197.36302c0-16.538675 13.267165-29.995151 29.581736-29.995151l356.588441 0c16.313547 0 29.589922 13.456477 29.589922 29.985942l0 297.42497 39.241746-32.051997L760.520655 138.79409c0-19.47454-15.790638-35.264155-35.264155-35.264155L302.091758 103.529935c-19.47454 0-35.263132 15.789615-35.263132 35.264155l0 95.640244 38.690184 30.580482L305.51881 197.36302zM655.176398 130.795928c5.130857 0 9.289574 4.157693 9.289574 9.29776 0 5.122671-4.158716 9.289574-9.289574 9.289574-5.131881 0-9.289574-4.166903-9.289574-9.289574C645.886825 134.954645 650.044518 130.795928 655.176398 130.795928zM438.523033 132.25107l144.162354 0c3.935636 0 7.120165 3.176342 7.120165 7.111978 0 3.934612-3.184529 7.110955-7.120165 7.110955L438.523033 146.474003c-3.917216 0-7.102768-3.176342-7.102768-7.110955C431.420265 135.427412 434.605817 132.25107 438.523033 132.25107z" p-id="12059"></path><path d="M721.149972 804.094568l0 26.387997c0 16.537651-13.276375 29.995151-29.590945 29.995151L334.970586 860.477716c-16.314571 0-29.581736-13.456477-29.581736-29.995151l0.740874-270.961248-38.569434 31.132044-0.860601 292.354488c0 19.473517 15.789615 35.263132 35.264155 35.263132l423.163719 0c19.473517 0 35.263132-15.789615 35.263132-35.263132l0-47.712675L721.149972 804.094568z" p-id="12060"></path><path d="M695.794491 197.354833c0-2.479471-1.842974-4.502547-4.106528-4.502547L335.099523 192.852286c-2.264577 0-4.098341 2.0241-4.098341 4.511757l0 88.158852 157.317978 125.101229L331.104535 539.006074l-0.103354 287.799752c0 2.488681 1.833765 4.510734 4.098341 4.510734l356.588441 0c2.263553 0 4.106528-2.023076 4.106528-4.510734l0-46.653553L531.658224 649.626497l164.136268-134.038786L695.794491 197.354833z" p-id="12061"></path></svg>