<?xml version="1.0" standalone="no"?><!DOCTYPE svg PUBLIC "-//W3C//DTD SVG 1.1//EN" "http://www.w3.org/Graphics/SVG/1.1/DTD/svg11.dtd"><svg t="1510651717678" class="icon" style="" viewBox="0 0 1024 1024" version="1.1" xmlns="http://www.w3.org/2000/svg" p-id="2629" xmlns:xlink="http://www.w3.org/1999/xlink" width="200" height="200"><defs><style type="text/css"></style></defs><path d="M737.792 76.8c8.704 0 24.576 1.536 34.816 10.752 2.56 2.048 9.216 8.704 9.216 24.576 0 17.92-9.728 46.08-37.888 71.68-33.792 31.232-90.112 54.784-130.56 54.784-11.776 0-17.408-2.048-17.92-2.048-7.68-14.848 8.704-79.872 55.808-123.392 25.6-23.04 57.856-36.352 86.528-36.352z m0-76.288C691.2 0.512 640 19.968 599.04 57.856 528.896 122.368 487.424 241.664 542.208 291.84c17.408 16.384 43.008 23.04 71.68 23.04 60.416 0 135.68-31.232 183.296-75.264 70.144-64.512 82.944-157.696 28.16-207.872-22.528-20.992-53.76-31.232-87.552-31.232M343.04 76.8c29.184 0 61.44 13.824 86.528 36.864C476.672 156.672 492.544 222.72 486.4 235.52c0 0-5.12 3.072-19.456 3.072-40.448 0-96.256-23.552-130.56-54.784-27.648-25.6-37.888-53.76-37.888-71.68 0-15.872 7.168-22.528 9.216-24.576 10.24-9.728 26.624-10.752 35.328-10.752zM343.04 0.512c-33.792 0-64.512 10.24-87.552 31.232-54.784 50.176-41.984 143.36 28.16 207.872 47.616 43.52 122.88 75.264 183.296 75.264 28.672 0 54.272-7.168 71.68-23.04 54.784-50.176 13.824-169.472-56.832-233.984C440.832 19.968 389.632 0.512 343.04 0.512m595.456 351.744c0-40.96-15.36-67.584-56.832-67.584h-340.992v340.992h397.824V352.256m-397.824 330.24v340.992h340.992c41.472 0 56.832-15.872 56.832-56.832v-284.16h-397.824m-57.344-56.832V284.672l-322.048-7.168c-41.472 0-75.776 33.792-75.776 74.752v273.408h397.824m-397.824 61.952v261.12c0 40.96 34.304 74.752 75.776 74.752h322.048v-340.992l-397.824 5.12" p-id="2630"></path></svg>