<?xml version="1.0" standalone="no"?><!DOCTYPE svg PUBLIC "-//W3C//DTD SVG 1.1//EN" "http://www.w3.org/Graphics/SVG/1.1/DTD/svg11.dtd"><svg t="1509957785466" class="icon" style="" viewBox="0 0 1024 1024" version="1.1" xmlns="http://www.w3.org/2000/svg" p-id="3092" xmlns:xlink="http://www.w3.org/1999/xlink" width="200" height="200"><defs><style type="text/css"></style></defs><path d="M527.179294 314.428235l109.628235 318.162824 59.392 17.287529c25.720471 12.649412 54.452706 2.831059 62.102589-21.383529l23.491764-40.478118 115.651765-223.111529c12.528941-25.901176 2.590118-54.814118-21.564235-62.644706L507.361882 132.517647c-24.094118-7.830588-59.452235-17.287529-88.124235-7.408941l-105.170823 36.261647 136.734117 55.356235c25.720471 12.649412 56.500706 39.875765 76.378353 97.701647z m-214.437647 519.408941l296.417882-102.038588c23.913412-8.192 33.249882-27.587765 24.997647-51.742117L502.964706 299.248941c-8.312471-24.094118-29.515294-54.573176-53.609412-62.464l-162.454588-68.065882c-24.094118-7.830588-52.766118 1.987765-66.921412 23.070117L129.084235 347.075765C115.049412 368.158118 121.916235 403.576471 130.108235 427.670588l131.132236 380.867765c3.553882 25.720471 22.889412 35.237647 51.561411 25.359059zM292.984471 290.334118c20.239059-6.987294 38.430118 1.987765 45.417411 22.407529a35.900235 35.900235 0 0 1-21.985882 45.598118 35.900235 35.900235 0 0 1-45.417412-22.40753c-7.047529-20.359529 1.807059-38.610824 21.985883-45.598117z" p-id="3093" class="selected"></path></svg>