<?xml version="1.0" standalone="no"?><!DOCTYPE svg PUBLIC "-//W3C//DTD SVG 1.1//EN" "http://www.w3.org/Graphics/SVG/1.1/DTD/svg11.dtd"><svg t="1519466274838" class="icon" style="" viewBox="0 0 1024 1024" version="1.1" xmlns="http://www.w3.org/2000/svg" p-id="3608" xmlns:xlink="http://www.w3.org/1999/xlink" width="200" height="200"><defs><style type="text/css"></style></defs><path d="M908.507955 945.944269 162.55885 945.944269c-51.478528 0-93.242368-41.731482-93.242368-93.238579L69.316482 417.5867c0-51.507098 41.76384-93.240627 93.242368-93.240627l62.162259 0 264.006451-202.53481c-1.212621-4.857651-2.003763-9.833984-2.003763-15.025254 0-34.326835 27.805389-62.158643 62.164275-62.158643 34.298573 0 62.160179 27.83191 62.160179 62.158643 0 11.200102-3.216384 21.520179-8.376115 30.593741l243.67145 186.965197 62.162259 0c51.510272 0 93.243392 41.73353 93.243392 93.240627l0 435.117982C1001.751347 904.211763 960.018227 945.944269 908.507955 945.944269zM568.860774 746.502861l125.295675 0 0-23.552415-98.829845 0 0-176.765913-26.464806 0L568.861798 746.502895zM389.565133 746.502861l21.944627-60.700467 84.16936 0 23.068262 60.700467 30.200027 0-81.676493-200.318362-28.713102 0-77.004902 200.318362L389.565095 746.502861zM204.293018 569.676595c-5.737882 8.832205-8.587981 18.303898-8.587981 28.409037 0 9.226138 2.336256 17.544602 7.00887 25.010586 4.674662 7.404646 11.809485 13.659136 21.339853 18.696806 7.344538 3.885466 20.184474 8.070861 38.516736 12.503757 18.333286 4.428902 30.169293 7.649178 35.541914 9.773568 8.316723 3.18761 14.357606 7.100723 18.062131 11.776205 3.701453 4.674458 5.55264 10.136883 5.55264 16.418918 0 6.161306-1.878835 11.897958-5.643776 17.150566-3.763917 5.280256-9.53047 9.407283-17.241395 12.443443-7.709901 3.004416-16.602829 4.491264-26.68073 4.491264-11.350938 0-21.579366-1.970893-30.624666-5.94647-9.106739-3.975578-15.783117-9.199514-20.094464-15.663718-4.310323-6.433485-7.071334-14.689587-8.255386-24.767078l-25.009562 2.186854c0.362291 13.414502 4.0064 25.372877 10.986701 35.995853 6.918861 10.625024 16.510669 18.575053 28.743782 23.855309 12.231066 5.282304 27.34592 7.894835 45.436621 7.894835 14.265446 0 27.105382-2.612531 38.51776-7.832371 11.382682-5.220864 20.123136-12.535501 26.224333-21.97545 6.102221-9.409331 9.136435-19.424358 9.136435-30.047334 0-10.746778-2.790707-20.214374-8.348467-28.440781-5.55264-8.224358-14.175437-15.022182-25.88969-20.363776-8.0128-3.644006-22.763315-7.892787-44.194304-12.77696-21.48823-4.886323-34.753946-9.623142-39.821517-14.296576-5.191475-4.613018-7.770317-10.56256-7.770317-17.758413 0-8.282624 3.642061-15.387443 10.958029-21.243802 7.312896-5.858406 18.938061-8.834253 34.906419-8.834253 15.32672 0 26.922291 3.219354 34.782618 9.653862s12.443955 15.90528 13.811098 28.468429l25.496678-1.940173c-0.455373-11.715789-3.734221-22.219059-9.834394-31.506534-6.071501-9.255834-14.751539-16.266445-26.072883-21.062758-11.322368-4.765491-24.373043-7.163187-39.186022-7.163187-13.47543 0-25.678848 2.307584-36.667597 6.85824C218.378445 554.197094 210.029875 560.877158 204.293018 569.676595zM587.708826 154.955162c-10.65513 8.620339-24.070144 14.022349-38.820762 14.022349-20.580557 0-38.66921-10.136883-50.021274-25.555046L255.801242 324.346061l559.460328 0L587.708826 154.955162zM875.482522 722.951475 752.61524 722.951475 752.61524 654.721539l110.726267 0 0-23.552415-110.726267 0 0-61.432141L870.869256 569.736982l0-23.552415L726.150434 546.184567l0 200.318328 149.333099 0L875.483533 722.951503zM452.092723 567.069184c3.188736 10.954445 7.92279 24.886784 14.205133 41.762099l21.096346 55.362867-68.355562 0 22.218957-58.640589C445.841101 592.895386 449.452442 580.05801 452.092723 567.069184z" p-id="3609"></path></svg>